<?xml version="1.0" encoding="utf-8"?>
<!-- Generator: Adobe Illustrator 24.0.2, SVG Export Plug-In . SVG Version: 6.00 Build 0)  -->
<svg version="1.1" id="Capa_1" xmlns="http://www.w3.org/2000/svg" xmlns:xlink="http://www.w3.org/1999/xlink" x="0px" y="0px"
	 viewBox="0 0 19 19" style="enable-background:new 0 0 19 19;" xml:space="preserve">
<style type="text/css">
	.st0{fill:#FFEC7D;}
	.st1{fill:#FFFFFF;}
</style>
<g>
	<path class="st0" d="M18.52,10.01c0,5.89-2.71,8.31-8.66,8.31c-5.94,0-8.66-2.41-8.66-8.31c0-5.89,2.71-8.79,8.66-8.86
		C15.5,1.09,18.45,4.11,18.52,10.01"/>
	<path class="st1" d="M10.77,15.15v-4.88h1.65l0.25-1.9h-1.9V7.16c0-0.55,0.15-0.93,0.95-0.93l1.02,0v-1.7
		c-0.18-0.02-0.78-0.08-1.48-0.08c-1.46,0-2.47,0.89-2.47,2.51v1.4H7.13v1.9h1.66v4.88H10.77z"/>
</g>
</svg>
