<?xml version="1.0" encoding="utf-8"?>
<!-- Generator: Adobe Illustrator 24.0.2, SVG Export Plug-In . SVG Version: 6.00 Build 0)  -->
<svg version="1.1" id="Capa_1" xmlns="http://www.w3.org/2000/svg" xmlns:xlink="http://www.w3.org/1999/xlink" x="0px" y="0px"
	 viewBox="0 0 18 18" style="enable-background:new 0 0 18 18;" xml:space="preserve">
<style type="text/css">
	.st0{fill:#FFFFFF;}
</style>
<path class="st0" d="M17.19,14.92l-4.1-4.1c0.73-1.07,1.16-2.36,1.16-3.75c0-3.68-2.99-6.67-6.67-6.67S0.9,3.38,0.9,7.06
	s2.99,6.67,6.67,6.67c1.39,0,2.68-0.43,3.75-1.16l4.1,4.1c0.24,0.24,0.56,0.36,0.88,0.36s0.64-0.12,0.88-0.36
	C17.67,16.19,17.67,15.4,17.19,14.92z M3.39,7.06c0-2.31,1.88-4.18,4.18-4.18c2.31,0,4.18,1.88,4.18,4.18s-1.88,4.18-4.18,4.18
	C5.26,11.24,3.39,9.37,3.39,7.06z"/>
</svg>
