<?xml version="1.0" encoding="utf-8"?>
<!-- Generator: Adobe Illustrator 24.0.2, SVG Export Plug-In . SVG Version: 6.00 Build 0)  -->
<svg version="1.1" id="Capa_1" xmlns="http://www.w3.org/2000/svg" xmlns:xlink="http://www.w3.org/1999/xlink" x="0px" y="0px"
	 viewBox="0 0 26 10" style="enable-background:new 0 0 26 10;" xml:space="preserve">
<style type="text/css">
	.st0{fill:#FFFFFF;}
</style>
<path class="st0" d="M25.71,5.23c-0.18-0.53-0.52-1-1.01-1.28c-0.06-0.04-0.13-0.06-0.2-0.09c0.27-0.19,0.51-0.42,0.69-0.73
	c0.4-0.71,0.33-1.62-0.26-2.2c-0.56-0.55-1.42-0.7-2.18-0.58c-0.9,0.15-1.59,0.76-2.24,1.36c-0.82,0.77-1.59,1.24-2.73,1.33
	c-1.13,0.09-2.29-0.02-3.42-0.06c-1.26-0.05-2.53-0.1-3.79-0.14L8.74,2.78c-0.63-0.02-1.28-0.09-1.9,0.07
	c-1.08-1.83-3.5-3.41-5.45-1.89C0.57,1.6,0.26,2.68,0.76,3.63C1.1,4.26,1.69,4.68,2.34,4.98C1.25,5.9,0.37,7.1,0.95,8.61
	c0.29,0.75,0.95,1.33,1.78,1.35C3.73,9.99,4.52,9.3,5.11,8.58c0.28-0.35,0.55-0.74,0.9-1.03c0.48-0.39,1.08-0.49,1.68-0.51
	c1.23-0.05,2.47,0.03,3.69,0.05c2.51,0.04,5.02,0.07,7.53,0.11c0.13,0.12,0.28,0.21,0.42,0.3c0.3,0.72,0.86,1.27,1.58,1.59
	c0.01,0.01,0.03,0.01,0.04,0.02c0.32,0.22,0.72,0.35,1.11,0.35c0.08,0,0.16-0.02,0.24-0.03c0.37,0.02,0.74-0.02,1.1-0.14
	C25.03,8.77,26.31,6.95,25.71,5.23z"/>
</svg>
