<?xml version="1.0" encoding="utf-8"?>
<!-- Generator: Adobe Illustrator 24.0.2, SVG Export Plug-In . SVG Version: 6.00 Build 0)  -->
<svg version="1.1" id="Capa_1" xmlns="http://www.w3.org/2000/svg" xmlns:xlink="http://www.w3.org/1999/xlink" x="0px" y="0px"
	 viewBox="0 0 25 21" style="enable-background:new 0 0 25 21;" xml:space="preserve">
<style type="text/css">
	.st0{fill:#FFFFFF;stroke:#000000;stroke-miterlimit:10;}
</style>
<g>
	<path class="st0" d="M22.3,17.64c0.14-0.51,0.14-1.06-0.09-1.55c-0.03-0.06-0.07-0.12-0.11-0.18c0.32,0,0.63-0.05,0.94-0.2
		c0.7-0.34,1.14-1.09,1-1.86c-0.14-0.74-0.74-1.32-1.39-1.64c-0.79-0.38-1.66-0.28-2.5-0.16c-1.07,0.15-1.92,0.11-2.87-0.45
		c-0.94-0.55-1.78-1.27-2.65-1.92c-0.96-0.73-1.93-1.45-2.89-2.18l-1.4-1.05C9.87,6.1,9.39,5.69,8.82,5.49
		c0.16-2.02-0.89-4.58-3.24-4.45C4.59,1.08,3.75,1.76,3.63,2.77C3.54,3.46,3.78,4.11,4.13,4.7c-1.36,0.12-2.7,0.59-3.07,2.09
		C0.88,7.53,1.08,8.35,1.72,8.82c0.76,0.56,1.76,0.46,2.61,0.21C4.74,8.91,5.17,8.74,5.6,8.71c0.59-0.05,1.11,0.21,1.6,0.52
		c0.98,0.63,1.91,1.37,2.87,2.05c1.95,1.4,3.89,2.8,5.84,4.2c0.04,0.16,0.1,0.31,0.16,0.47c-0.16,0.73-0.02,1.46,0.37,2.11
		c0.01,0.01,0.02,0.02,0.03,0.04c0.13,0.35,0.37,0.67,0.68,0.88c0.06,0.04,0.14,0.07,0.2,0.11c0.28,0.21,0.59,0.39,0.94,0.49
		C19.84,20.05,21.83,19.32,22.3,17.64z"/>
</g>
</svg>
