<?xml version="1.0" encoding="utf-8"?>
<!-- Generator: Adobe Illustrator 24.0.2, SVG Export Plug-In . SVG Version: 6.00 Build 0)  -->
<svg version="1.1" id="Capa_1" xmlns="http://www.w3.org/2000/svg" xmlns:xlink="http://www.w3.org/1999/xlink" x="0px" y="0px"
	 viewBox="0 0 13 13" style="enable-background:new 0 0 13 13;" xml:space="preserve">
<style type="text/css">
	.st0{fill:#FFFFFF;}
	.st1{fill:#5352EE;}
</style>
<g>
	<path class="st0" d="M10.45,0.48H2.03c-0.85,0-1.55,0.7-1.55,1.56v8.51c0,0.86,0.69,1.56,1.55,1.56h8.42c0.85,0,1.55-0.7,1.55-1.56
		V2.04C12,1.18,11.31,0.48,10.45,0.48z"/>
	<g>
		<path class="st1" d="M6.83,10.15V6.67H8l0.18-1.36H6.83V4.45c0-0.39,0.11-0.66,0.67-0.66l0.72,0V2.57
			C8.1,2.55,7.67,2.52,7.18,2.52c-1.04,0-1.75,0.63-1.75,1.79v1H4.26v1.36h1.17v3.48H6.83z"/>
	</g>
</g>
</svg>
