<?xml version="1.0" encoding="utf-8"?>
<!-- Generator: Adobe Illustrator 24.0.2, SVG Export Plug-In . SVG Version: 6.00 Build 0)  -->
<svg version="1.1" id="Capa_1" xmlns="http://www.w3.org/2000/svg" xmlns:xlink="http://www.w3.org/1999/xlink" x="0px" y="0px"
	 viewBox="0 0 19 19" style="enable-background:new 0 0 19 19;" xml:space="preserve">
<style type="text/css">
	.st0{fill:#FFEC7D;}
	.st1{fill:#FFFFFF;}
</style>
<g>
	<path class="st0" d="M17.95,9.96c0,5.89-2.71,8.31-8.66,8.31c-5.94,0-8.66-2.41-8.66-8.31c0-5.89,2.71-8.86,8.66-8.86
		C15.24,1.1,17.95,4.07,17.95,9.96"/>
	<path class="st1" d="M9.36,5.2c1.49,0,1.67,0.01,2.26,0.03c0.55,0.02,0.84,0.11,1.04,0.19c0.26,0.1,0.45,0.22,0.64,0.41
		c0.2,0.19,0.32,0.38,0.42,0.64c0.08,0.2,0.17,0.49,0.19,1.03c0.03,0.59,0.03,0.76,0.03,2.24c0,1.48-0.01,1.66-0.03,2.24
		c-0.02,0.54-0.12,0.84-0.19,1.03c-0.1,0.26-0.22,0.44-0.42,0.64c-0.2,0.19-0.38,0.31-0.64,0.42c-0.2,0.08-0.49,0.17-1.04,0.19
		c-0.59,0.03-0.77,0.03-2.26,0.03c-1.49,0-1.67-0.01-2.26-0.03c-0.55-0.02-0.84-0.11-1.04-0.19c-0.26-0.1-0.45-0.22-0.64-0.42
		C5.22,13.47,5.1,13.29,5,13.03c-0.08-0.2-0.17-0.49-0.19-1.03c-0.03-0.59-0.03-0.76-0.03-2.24c0-1.48,0.01-1.66,0.03-2.24
		C4.83,6.97,4.92,6.68,5,6.48c0.1-0.26,0.22-0.44,0.42-0.64c0.2-0.19,0.38-0.31,0.64-0.41c0.2-0.08,0.49-0.17,1.04-0.19
		C7.69,5.21,7.87,5.2,9.36,5.2 M9.36,4.2c-1.52,0-1.71,0.01-2.31,0.03c-0.6,0.03-1,0.12-1.36,0.26C5.33,4.64,5.02,4.83,4.71,5.14
		C4.39,5.44,4.2,5.75,4.06,6.12C3.92,6.47,3.83,6.88,3.8,7.47C3.77,8.06,3.77,8.25,3.77,9.75s0.01,1.7,0.03,2.29
		c0.03,0.59,0.12,0.99,0.26,1.35c0.14,0.37,0.33,0.67,0.65,0.98c0.31,0.31,0.62,0.5,0.99,0.64c0.36,0.14,0.76,0.23,1.36,0.26
		c0.6,0.03,0.79,0.03,2.31,0.03c1.52,0,1.71-0.01,2.31-0.03c0.6-0.03,1-0.12,1.36-0.26c0.37-0.14,0.68-0.33,0.99-0.64
		c0.31-0.31,0.5-0.62,0.65-0.98c0.14-0.35,0.23-0.76,0.26-1.35c0.03-0.59,0.03-0.78,0.03-2.29s-0.01-1.7-0.03-2.29
		c-0.03-0.59-0.12-0.99-0.26-1.35c-0.14-0.36-0.33-0.67-0.65-0.98c-0.31-0.31-0.62-0.5-0.99-0.64c-0.36-0.14-0.76-0.23-1.36-0.26
		C11.07,4.21,10.88,4.2,9.36,4.2"/>
	<path class="st1" d="M9.36,6.9c-1.59,0-2.87,1.28-2.87,2.85c0,1.57,1.29,2.85,2.87,2.85c1.59,0,2.87-1.28,2.87-2.85
		C12.24,8.18,10.95,6.9,9.36,6.9 M9.36,11.6c-1.03,0-1.87-0.83-1.87-1.85c0-1.02,0.84-1.85,1.87-1.85c1.03,0,1.87,0.83,1.87,1.85
		C11.23,10.78,10.39,11.6,9.36,11.6"/>
	<path class="st1" d="M13.02,6.79c0,0.37-0.3,0.67-0.67,0.67c-0.37,0-0.67-0.3-0.67-0.67c0-0.37,0.3-0.67,0.67-0.67
		C12.72,6.13,13.02,6.42,13.02,6.79"/>
</g>
</svg>
