<?xml version="1.0" encoding="utf-8"?>
<!-- Generator: Adobe Illustrator 24.0.2, SVG Export Plug-In . SVG Version: 6.00 Build 0)  -->
<svg version="1.1" id="Capa_1" xmlns="http://www.w3.org/2000/svg" xmlns:xlink="http://www.w3.org/1999/xlink" x="0px" y="0px"
	 viewBox="0 0 13 13" style="enable-background:new 0 0 13 13;" xml:space="preserve">
<style type="text/css">
	.st0{fill:#FFFFFF;}
	.st1{fill:#5352EE;}
</style>
<g>
	<path class="st0" d="M10.5,0.9H2.07c-0.85,0-1.55,0.7-1.55,1.56v8.51c0,0.86,0.69,1.56,1.55,1.56h8.42c0.85,0,1.55-0.7,1.55-1.56
		V2.46C12.04,1.6,11.35,0.9,10.5,0.9z"/>
	<g>
		<g>
			<path class="st1" d="M6.29,3.47c1.06,0,1.18,0,1.6,0.02c0.39,0.02,0.6,0.08,0.74,0.14c0.18,0.07,0.32,0.16,0.46,0.3
				c0.14,0.14,0.22,0.27,0.3,0.46c0.05,0.14,0.12,0.35,0.14,0.74c0.02,0.42,0.02,0.54,0.02,1.6c0,1.06,0,1.18-0.02,1.6
				C9.49,8.7,9.43,8.91,9.37,9.05C9.3,9.23,9.22,9.37,9.08,9.51C8.94,9.64,8.81,9.73,8.62,9.8C8.48,9.86,8.27,9.92,7.89,9.94
				c-0.42,0.02-0.54,0.02-1.6,0.02s-1.18,0-1.6-0.02C4.3,9.92,4.09,9.86,3.95,9.8c-0.18-0.07-0.32-0.16-0.46-0.3
				C3.36,9.37,3.27,9.23,3.2,9.05C3.14,8.91,3.08,8.7,3.06,8.31C3.04,7.9,3.04,7.77,3.04,6.71c0-1.06,0-1.18,0.02-1.6
				c0.02-0.39,0.08-0.6,0.14-0.74c0.07-0.18,0.16-0.32,0.3-0.46c0.14-0.14,0.27-0.22,0.46-0.3C4.09,3.57,4.3,3.51,4.69,3.49
				C5.1,3.47,5.23,3.47,6.29,3.47 M6.29,2.75c-1.08,0-1.21,0-1.63,0.02C4.23,2.8,3.94,2.86,3.69,2.96c-0.26,0.1-0.48,0.24-0.7,0.46
				c-0.22,0.22-0.36,0.44-0.46,0.7c-0.1,0.25-0.16,0.54-0.18,0.96C2.33,5.5,2.33,5.64,2.33,6.71s0,1.21,0.02,1.63
				c0.02,0.42,0.09,0.71,0.18,0.96c0.1,0.26,0.24,0.48,0.46,0.7c0.22,0.22,0.44,0.36,0.7,0.46c0.25,0.1,0.54,0.16,0.96,0.18
				c0.42,0.02,0.56,0.02,1.63,0.02c1.08,0,1.21,0,1.63-0.02c0.42-0.02,0.71-0.09,0.96-0.18c0.26-0.1,0.48-0.24,0.7-0.46
				c0.22-0.22,0.36-0.44,0.46-0.7c0.1-0.25,0.16-0.54,0.18-0.96c0.02-0.42,0.02-0.56,0.02-1.63s0-1.21-0.02-1.63
				c-0.02-0.42-0.09-0.71-0.18-0.96c-0.1-0.26-0.24-0.48-0.46-0.7C9.36,3.2,9.14,3.06,8.88,2.96C8.63,2.86,8.34,2.8,7.92,2.78
				C7.5,2.76,7.36,2.75,6.29,2.75"/>
			<path class="st1" d="M6.29,4.68c-1.12,0-2.03,0.91-2.03,2.03c0,1.12,0.91,2.03,2.03,2.03c1.12,0,2.03-0.91,2.03-2.03
				C8.32,5.59,7.41,4.68,6.29,4.68 M6.29,8.03c-0.73,0-1.32-0.59-1.32-1.32c0-0.73,0.59-1.32,1.32-1.32c0.73,0,1.32,0.59,1.32,1.32
				C7.61,7.44,7.01,8.03,6.29,8.03"/>
			<path class="st1" d="M8.87,4.6c0,0.26-0.21,0.48-0.48,0.48c-0.26,0-0.48-0.21-0.48-0.48c0-0.26,0.21-0.48,0.48-0.48
				C8.66,4.12,8.87,4.34,8.87,4.6"/>
		</g>
	</g>
</g>
</svg>
