<?xml version="1.0" encoding="utf-8"?>
<!-- Generator: Adobe Illustrator 24.0.2, SVG Export Plug-In . SVG Version: 6.00 Build 0)  -->
<svg version="1.1" id="Capa_1" xmlns="http://www.w3.org/2000/svg" xmlns:xlink="http://www.w3.org/1999/xlink" x="0px" y="0px"
	 viewBox="0 0 13 13" style="enable-background:new 0 0 13 13;" xml:space="preserve">
<style type="text/css">
	.st0{fill:#FFFFFF;}
	.st1{fill:#5352EE;}
</style>
<g>
	<path class="st0" d="M10.45,0.48H2.03c-0.85,0-1.55,0.7-1.55,1.56v8.51c0,0.86,0.69,1.56,1.55,1.56h8.42c0.85,0,1.55-0.7,1.55-1.56
		V2.04C12,1.18,11.31,0.48,10.45,0.48z"/>
	<g>
		<path class="st1" d="M5,9.06c2.53,0,3.91-2.09,3.91-3.91c0-0.06,0-0.12,0-0.18c0.27-0.19,0.5-0.44,0.69-0.71
			C9.34,4.37,9.08,4.44,8.8,4.47C9.08,4.3,9.3,4.03,9.4,3.71C9.14,3.87,8.84,3.99,8.53,4.05c-0.25-0.27-0.61-0.43-1-0.43
			c-0.76,0-1.37,0.62-1.37,1.37c0,0.11,0.01,0.21,0.04,0.31C5.05,5.24,4.03,4.7,3.36,3.87C3.24,4.07,3.17,4.3,3.17,4.56
			c0,0.48,0.24,0.9,0.61,1.14C3.56,5.69,3.35,5.63,3.16,5.53c0,0.01,0,0.01,0,0.02c0,0.67,0.47,1.22,1.1,1.35
			C4.15,6.92,4.03,6.94,3.9,6.94c-0.09,0-0.17-0.01-0.26-0.02c0.17,0.55,0.68,0.94,1.28,0.95C4.45,8.24,3.86,8.46,3.22,8.46
			C3.11,8.46,3,8.45,2.89,8.44C3.5,8.83,4.22,9.06,5,9.06"/>
	</g>
</g>
</svg>
