<?xml version="1.0" encoding="utf-8"?>
<!-- Generator: Adobe Illustrator 24.0.2, SVG Export Plug-In . SVG Version: 6.00 Build 0)  -->
<svg version="1.1" id="Capa_1" xmlns="http://www.w3.org/2000/svg" xmlns:xlink="http://www.w3.org/1999/xlink" x="0px" y="0px"
	 viewBox="0 0 19 19" style="enable-background:new 0 0 19 19;" xml:space="preserve">
<style type="text/css">
	.st0{fill:#FFEC7D;}
	.st1{fill:#FFFFFF;}
</style>
<g>
	<path class="st0" d="M18.09,10.01c0,5.89-2.71,8.31-8.66,8.31c-5.94,0-8.66-2.41-8.66-8.31c0-5.89,2.71-8.86,8.66-8.86
		C15.38,1.15,18.09,4.12,18.09,10.01"/>
	<path class="st1" d="M7.75,13.62c3.57,0,5.53-2.93,5.53-5.48c0-0.08,0-0.17-0.01-0.25c0.38-0.27,0.71-0.61,0.97-1
		c-0.35,0.15-0.72,0.26-1.12,0.3c0.4-0.24,0.71-0.62,0.85-1.07c-0.38,0.22-0.79,0.38-1.23,0.47c-0.35-0.37-0.86-0.61-1.42-0.61
		c-1.07,0-1.94,0.86-1.94,1.93c0,0.15,0.02,0.3,0.05,0.44c-1.61-0.08-3.05-0.85-4-2.01C5.26,6.63,5.16,6.96,5.16,7.31
		c0,0.67,0.34,1.26,0.86,1.6C5.71,8.9,5.41,8.82,5.15,8.67c0,0.01,0,0.02,0,0.02c0,0.93,0.67,1.71,1.56,1.89
		c-0.16,0.04-0.33,0.07-0.51,0.07c-0.13,0-0.25-0.01-0.37-0.03c0.25,0.77,0.96,1.32,1.81,1.34c-0.66,0.52-1.5,0.82-2.41,0.82
		c-0.16,0-0.31-0.01-0.46-0.03C5.63,13.3,6.65,13.62,7.75,13.62"/>
</g>
</svg>
