<?xml version="1.0" encoding="utf-8"?>
<!-- Generator: Adobe Illustrator 24.0.2, SVG Export Plug-In . SVG Version: 6.00 Build 0)  -->
<svg version="1.1" id="Capa_1" xmlns="http://www.w3.org/2000/svg" xmlns:xlink="http://www.w3.org/1999/xlink" x="0px" y="0px"
	 viewBox="0 0 13 13" style="enable-background:new 0 0 13 13;" xml:space="preserve">
<style type="text/css">
	.st0{fill:#FFFFFF;}
	.st1{fill-rule:evenodd;clip-rule:evenodd;fill:#5352EE;}
</style>
<g>
	<path class="st0" d="M10.45,0.48H2.03c-0.85,0-1.55,0.7-1.55,1.56v8.51c0,0.86,0.69,1.56,1.55,1.56h8.42c0.85,0,1.55-0.7,1.55-1.56
		V2.04C12,1.18,11.31,0.48,10.45,0.48z"/>
	<g>
		<g>
			<path class="st1" d="M8.96,3.6c-0.72-0.72-1.68-1.12-2.7-1.12c-2.11,0-3.82,1.71-3.82,3.82c0,0.67,0.18,1.33,0.51,1.91L2.4,10.19
				l2.03-0.53c0.56,0.3,1.19,0.46,1.83,0.47h0c2.11,0,3.82-1.71,3.82-3.82C10.08,5.28,9.68,4.32,8.96,3.6 M6.26,9.48L6.26,9.48
				c-0.57,0-1.13-0.15-1.62-0.44L4.52,8.97l-1.2,0.32l0.32-1.17L3.56,7.99C3.25,7.48,3.08,6.9,3.08,6.3c0-1.75,1.43-3.18,3.18-3.18
				c0.85,0,1.65,0.33,2.25,0.93c0.6,0.6,0.93,1.4,0.93,2.25C9.43,8.05,8.01,9.48,6.26,9.48"/>
			<path class="st1" d="M8,7.1C7.9,7.05,7.43,6.82,7.35,6.79C7.26,6.76,7.19,6.74,7.13,6.84c-0.06,0.1-0.25,0.31-0.3,0.37
				C6.77,7.27,6.72,7.28,6.62,7.23s-0.4-0.15-0.77-0.47C5.57,6.51,5.38,6.19,5.32,6.1C5.27,6,5.32,5.95,5.36,5.9
				c0.04-0.04,0.1-0.11,0.14-0.17c0.05-0.06,0.06-0.1,0.1-0.16C5.64,5.51,5.62,5.46,5.6,5.41C5.57,5.36,5.38,4.89,5.3,4.7
				C5.22,4.51,5.14,4.54,5.09,4.54c-0.06,0-0.12,0-0.18,0c-0.06,0-0.17,0.02-0.25,0.12c-0.09,0.1-0.33,0.33-0.33,0.8
				c0,0.47,0.34,0.92,0.39,0.99C4.75,6.5,5.38,7.47,6.34,7.88c0.23,0.1,0.41,0.16,0.54,0.2c0.23,0.07,0.44,0.06,0.6,0.04
				c0.18-0.03,0.56-0.23,0.64-0.45c0.08-0.22,0.08-0.41,0.06-0.45C8.16,7.17,8.09,7.15,8,7.1"/>
		</g>
	</g>
</g>
</svg>
