<?xml version="1.0" encoding="utf-8"?>
<!-- Generator: Adobe Illustrator 24.0.2, SVG Export Plug-In . SVG Version: 6.00 Build 0)  -->
<svg version="1.1" id="Capa_1" xmlns="http://www.w3.org/2000/svg" xmlns:xlink="http://www.w3.org/1999/xlink" x="0px" y="0px"
	 viewBox="0 0 19 19" style="enable-background:new 0 0 19 19;" xml:space="preserve">
<style type="text/css">
	.st0{fill:#FFEC7D;}
	.st1{fill-rule:evenodd;clip-rule:evenodd;fill:#FFFFFF;}
</style>
<g>
	<path class="st0" d="M17.93,10.03c0,5.89-2.71,8.31-8.66,8.31c-5.94,0-8.66-2.41-8.66-8.31c0-5.89,2.71-8.86,8.66-8.86
		C15.22,1.17,17.93,4.14,17.93,10.03"/>
	<path class="st1" d="M13.1,5.97C12.08,4.96,10.72,4.4,9.28,4.4c-2.98,0-5.4,2.4-5.4,5.35c0,0.94,0.25,1.87,0.72,2.68L3.83,15.2
		l2.86-0.74c0.79,0.43,1.68,0.65,2.58,0.65h0c2.98,0,5.4-2.4,5.4-5.36C14.68,8.33,14.12,6.98,13.1,5.97 M9.28,14.21L9.28,14.21
		c-0.81,0-1.6-0.21-2.29-0.62l-0.16-0.1l-1.7,0.44l0.45-1.64l-0.11-0.17c-0.45-0.71-0.69-1.53-0.69-2.37C4.79,7.3,6.8,5.3,9.28,5.3
		c1.2,0,2.33,0.46,3.17,1.31c0.85,0.84,1.31,1.96,1.31,3.15C13.76,12.21,11.75,14.21,9.28,14.21"/>
	<path class="st1" d="M11.74,10.87c-0.14-0.07-0.8-0.39-0.92-0.44c-0.12-0.04-0.21-0.07-0.3,0.07c-0.09,0.13-0.35,0.44-0.43,0.52
		c-0.08,0.09-0.16,0.1-0.29,0.03C9.66,11,9.22,10.86,8.71,10.4c-0.4-0.35-0.67-0.79-0.75-0.93C7.88,9.34,7.95,9.27,8.02,9.2
		c0.06-0.06,0.14-0.16,0.2-0.23c0.07-0.08,0.09-0.13,0.14-0.22C8.4,8.65,8.38,8.57,8.34,8.51c-0.03-0.07-0.3-0.73-0.42-0.99
		C7.82,7.25,7.7,7.29,7.62,7.28c-0.08,0-0.17,0-0.26,0C7.27,7.28,7.13,7.31,7,7.45C6.88,7.58,6.53,7.9,6.53,8.56
		c0,0.66,0.48,1.29,0.55,1.38c0.07,0.09,0.95,1.44,2.31,2.02c0.32,0.14,0.57,0.22,0.77,0.28c0.32,0.1,0.62,0.09,0.85,0.05
		c0.26-0.04,0.8-0.32,0.91-0.64c0.11-0.31,0.11-0.58,0.08-0.64C11.96,10.97,11.87,10.94,11.74,10.87"/>
</g>
</svg>
